<svg width="75" height="75" viewBox="0 0 75 75" fill="none" xmlns="http://www.w3.org/2000/svg">
<path d="M74 37.1394C74 57.0896 57.6675 73.2788 37.5 73.2788C17.3325 73.2788 1 57.0896 1 37.1394C1 17.1893 17.3325 1 37.5 1C57.6675 1 74 17.1893 74 37.1394Z" fill="#FBF6ED" stroke="#174A5B" stroke-width="2"/>
<path d="M37.5 37.1399C42.3805 37.1399 46.3334 33.225 46.3334 28.3915C46.3334 23.558 42.3805 19.6431 37.5 19.6431C32.6196 19.6431 28.6667 23.558 28.6667 28.3915C28.6667 33.225 32.6196 37.1399 37.5 37.1399ZM37.5 41.5141C31.6038 41.5141 19.8334 44.4448 19.8334 50.2625V54.6367H55.1667V50.2625C55.1667 44.4448 43.3963 41.5141 37.5 41.5141Z" fill="#174A5B"/>
</svg>
