<svg width="53" height="66" viewBox="0 0 53 66" fill="none" xmlns="http://www.w3.org/2000/svg">
<path fill-rule="evenodd" clip-rule="evenodd" d="M45.0673 18.8377C45.2188 18.9888 45.3389 19.1683 45.4209 19.3659C45.5029 19.5635 45.5451 19.7753 45.5451 19.9892C45.5451 20.2032 45.5029 20.415 45.4209 20.6126C45.3389 20.8102 45.2188 20.9897 45.0673 21.1408L22.2967 43.9114C22.1456 44.0628 21.9661 44.183 21.7685 44.265C21.5709 44.347 21.3591 44.3892 21.1452 44.3892C20.9312 44.3892 20.7194 44.347 20.5218 44.265C20.3242 44.183 20.1447 44.0628 19.9936 43.9114L8.60833 32.5261C8.30292 32.2207 8.13135 31.8064 8.13135 31.3745C8.13135 30.9426 8.30292 30.5284 8.60833 30.223C8.91374 29.9176 9.32796 29.746 9.75987 29.746C10.1918 29.746 10.606 29.9176 10.9114 30.223L21.1452 40.46L42.7642 18.8377C42.9153 18.6862 43.0948 18.5661 43.2924 18.4841C43.49 18.4021 43.7018 18.3599 43.9158 18.3599C44.1297 18.3599 44.3415 18.4021 44.5391 18.4841C44.7367 18.5661 44.9162 18.6862 45.0673 18.8377Z" fill="#28A745"/>
</svg>
