<svg width="100" height="100" viewBox="0 0 100 100" fill="none" xmlns="http://www.w3.org/2000/svg">
<g clip-path="url(#clip0)">
<path d="M84.9035 72.3779V3.45002C84.9035 1.44043 83.2677 -0.195312 81.2574 -0.195312H24.7815C19.5172 -0.195312 15.234 4.08784 15.234 9.35213V82.1558C15.234 87.4201 19.5164 91.7024 24.7815 91.7024H24.8028V98.3377C24.8028 98.8901 25.1133 99.3959 25.6054 99.6462C26.0983 99.8957 26.6903 99.8476 27.1359 99.5218L31.1573 96.5807L35.1796 99.5218C35.4359 99.7095 35.7396 99.8049 36.0455 99.8049C36.2721 99.8049 36.4995 99.7522 36.7093 99.6462C37.2021 99.3959 37.5126 98.8901 37.5126 98.3377V91.7024H81.2574C83.2677 91.7024 84.9027 90.0675 84.9027 88.0571V79.4855C84.9027 78.6752 84.2458 78.0183 83.4356 78.0183C82.6253 78.0183 81.9684 78.6752 81.9684 79.4855V88.0571C81.9684 88.45 81.6495 88.7689 81.2566 88.7689H37.5126V85.0961H75.3675C76.1777 85.0961 76.8346 84.4392 76.8346 83.6298C76.8346 82.8195 76.1777 82.1626 75.3675 82.1626H22.3538C21.5435 82.1626 20.8866 82.8195 20.8866 83.6298C20.8866 84.4392 21.5435 85.0961 22.3538 85.0961H24.8028V88.7689H24.7815C21.1346 88.7689 18.1675 85.8019 18.1675 82.1558V80.4582C18.1675 76.8114 21.1346 73.8451 24.7815 73.8451H83.4363C84.2466 73.8451 84.9035 73.1882 84.9035 72.3779ZM34.5791 85.0961V95.4477L32.024 93.5793C31.7662 93.3908 31.4618 93.2962 31.1581 93.2962C30.8537 93.2962 30.5493 93.3908 30.2914 93.5793L27.7363 95.4477V85.0961H34.5791ZM18.1683 73.5826V9.35213C18.1683 5.70527 21.1346 2.7382 24.7815 2.7382H81.2574C81.6503 2.7382 81.9692 3.05787 81.9692 3.45002V70.9108H24.7815C22.2157 70.9108 19.8849 71.9301 18.1683 73.5826Z" fill="#174A5B"/>
<path d="M26.4624 76.4468C25.6521 76.4468 24.9952 77.1037 24.9952 77.9139C24.9952 78.7242 25.6521 79.3811 26.4624 79.3811H56.9877C57.7979 79.3811 58.4548 78.7242 58.4548 77.9139C58.4548 77.1037 57.7979 76.4468 56.9877 76.4468H26.4624Z" fill="#174A5B"/>
<path d="M63.8802 76.4468C63.07 76.4468 62.4131 77.1037 62.4131 77.9139C62.4131 78.7242 63.07 79.3811 63.8802 79.3811H75.3678C76.1781 79.3811 76.8349 78.7242 76.8349 77.9139C76.8349 77.1037 76.1781 76.4468 75.3678 76.4468H63.8802Z" fill="#174A5B"/>
<path d="M34.6677 49.0355H32.0661C31.4992 49.0355 31.3337 49.5482 31.3337 50.0609C31.3337 50.5736 31.4801 51.1046 32.0661 51.1046H33.4768C33.8979 51.1046 34.0078 51.2511 33.9895 51.7088C33.9528 52.5885 33.6782 54.1999 31.5725 54.1999C29.2279 54.1999 28.9708 51.3426 28.9708 49.7305C28.9708 47.8079 29.2829 45.2803 31.5725 45.2803C32.7993 45.2803 33.3486 45.8662 33.6232 46.91C33.7514 47.386 34.0627 47.5882 35.0889 47.5882C36.0227 47.5882 36.2607 47.0747 36.1509 46.4888C35.729 44.3282 34.1359 43.1372 31.5717 43.1372C27.8356 43.3386 26.4623 45.9944 26.4623 49.7305C26.4623 53.3942 27.9088 56.343 31.6632 56.343C35.2346 56.343 36.4988 53.7604 36.3706 50.6095C36.334 49.6214 36.0044 49.0355 34.6677 49.0355Z" fill="#174A5B"/>
<path d="M46.4429 43.2656C45.8386 43.2656 45.2344 43.4495 45.2344 44.1087V51.764C45.2344 53.1564 44.4462 54.1635 43.018 54.1635C41.5898 54.1635 40.82 53.1564 40.82 51.764V44.1087C40.82 43.4495 40.2157 43.2656 39.6107 43.2656C39.0065 43.2656 38.4022 43.4495 38.4022 44.1087V51.5443C38.4022 54.9508 40.3256 56.3615 43.018 56.3615C45.728 56.3615 47.6513 54.9508 47.6513 51.5443V44.1087C47.6513 43.4495 47.0471 43.2656 46.4429 43.2656Z" fill="#174A5B"/>
<path d="M51.2403 43.2656C50.636 43.2656 50.0317 43.4495 50.0317 44.1087V55.4643C50.0317 56.1418 50.636 56.3249 51.2403 56.3249C51.8445 56.3249 52.4671 56.1418 52.4671 55.4643V44.1087C52.4671 43.4495 51.8445 43.2656 51.2403 43.2656Z" fill="#174A5B"/>
<path d="M59.1708 43.3389H56.6432C55.7094 43.3389 54.8488 43.5769 54.8488 44.951V54.5297C54.8488 55.9221 55.7094 56.1601 56.6432 56.1601H59.1708C62.8154 56.1601 64.2436 53.1564 64.2436 49.7499C64.2436 46.3426 62.7788 43.3389 59.1708 43.3389ZM59.1708 53.9438H57.577C57.3756 53.9438 57.2657 53.8705 57.2657 53.6325V45.8482C57.2657 45.6101 57.3756 45.5369 57.577 45.5369H59.1708C61.1667 45.5369 61.7534 47.9547 61.7534 49.7499C61.7534 51.5443 61.2216 53.9438 59.1708 53.9438Z" fill="#174A5B"/>
<path d="M68.8214 45.5366H72.9055C73.5288 45.5366 73.6753 44.9873 73.6753 44.438C73.6753 43.8887 73.5105 43.3394 72.9055 43.3394H67.8693C66.953 43.3394 66.0741 43.5774 66.0741 44.9507V54.5477C66.0741 55.9218 66.953 56.1598 67.8693 56.1598H72.9055C73.5097 56.1598 73.6753 55.6105 73.6753 55.0612C73.6753 54.5119 73.5288 53.9618 72.9055 53.9618H68.8214C68.6017 53.9618 68.5102 53.8885 68.5102 53.6505V50.6285H72.228C72.8322 50.6285 72.997 50.0792 72.997 49.5299C72.997 48.9805 72.8322 48.4312 72.228 48.4312H68.5102V45.8487C68.5102 45.6099 68.6017 45.5366 68.8214 45.5366Z" fill="#174A5B"/>
<path d="M64.9651 7.23975C57.6866 7.23975 51.7646 13.1617 51.7646 20.4402C51.7646 27.7194 57.6866 33.6413 64.9651 33.6413C72.2443 33.6413 78.1662 27.7194 78.1662 20.4402C78.1662 13.1617 72.2443 7.23975 64.9651 7.23975ZM64.9651 30.7078C59.304 30.7078 54.6982 26.1019 54.6982 20.4409C54.6982 14.7791 59.304 10.1733 64.9651 10.1733C70.6268 10.1733 75.2327 14.7791 75.2327 20.4409C75.2327 26.1019 70.6268 30.7078 64.9651 30.7078Z" fill="#174A5B"/>
<path d="M46.7847 10.6057L45.4183 11.9729C43.733 9.95567 41.4762 8.47862 38.9203 7.74772C35.5298 6.77879 31.9646 7.18772 28.8823 8.89976C25.7993 10.6118 23.5684 13.4217 22.5995 16.8122C20.5991 23.8107 24.6648 31.1326 31.664 33.1331C32.8717 33.4787 34.0886 33.6427 35.2872 33.6427C41.0306 33.6427 46.3293 29.8593 47.9848 24.0686C48.2419 23.1683 48.4037 22.2428 48.4663 21.3174C48.4807 21.1045 48.4884 20.7932 48.4884 20.44C48.4884 19.6305 47.8323 18.9736 47.0212 18.9736C46.211 18.9736 45.5549 19.6305 45.5549 20.44C45.5549 20.7208 45.5488 20.9741 45.5389 21.1198C45.49 21.84 45.3641 22.561 45.1635 23.2621C43.6078 28.7057 37.9133 31.8681 32.4697 30.3125C27.0269 28.7561 23.8637 23.0615 25.4201 17.6186C26.1731 14.9819 27.9088 12.7961 30.3067 11.4648C32.7039 10.1334 35.4764 9.81453 38.1131 10.5683C40.1868 11.1611 42.0057 12.3849 43.3324 14.058L34.8867 22.5038L30.8705 18.4884C30.2976 17.9154 29.3691 17.9154 28.7961 18.4884C28.2231 19.0614 28.2231 19.9899 28.7961 20.5628L33.8491 25.6158C34.1359 25.9019 34.5113 26.0453 34.8867 26.0453C35.262 26.0453 35.6374 25.9027 35.9235 25.6158L48.8592 12.6801C49.4321 12.1072 49.4321 11.1787 48.8592 10.6057C48.2862 10.0327 47.3577 10.0327 46.7847 10.6057Z" fill="#174A5B"/>
<path d="M71.2474 14.4307C70.6736 13.8577 69.7451 13.8577 69.1722 14.4307L64.9806 18.6231L60.7882 14.4307C60.2153 13.8577 59.2868 13.8577 58.7138 14.4307C58.1408 15.0037 58.1408 15.9322 58.7138 16.5051L62.9061 20.6975L58.7138 24.8899C58.1408 25.4621 58.1408 26.3913 58.7138 26.9643C59.0006 27.2504 59.376 27.3938 59.7514 27.3938C60.1267 27.3938 60.5021 27.2504 60.7882 26.9643L64.9806 22.7719L69.1722 26.9643C69.459 27.2504 69.8344 27.3938 70.2098 27.3938C70.5851 27.3938 70.9605 27.2504 71.2474 26.9643C71.8196 26.3913 71.8196 25.4621 71.2474 24.8899L67.055 20.6975L71.2474 16.5051C71.8196 15.9322 71.8196 15.0037 71.2474 14.4307Z" fill="#174A5B"/>
</g>
<defs>
<clipPath id="clip0">
<rect width="100" height="100" fill="white"/>
</clipPath>
</defs>
</svg>
