<svg width="103" height="103" viewBox="0 0 103 103" fill="none" xmlns="http://www.w3.org/2000/svg">
<path d="M88.0192 41.7227L55.8289 12.4579C54.6465 11.3753 53.1015 10.7748 51.4983 10.7749C49.8951 10.775 48.3502 11.3757 47.1679 12.4585L14.9832 41.7225C14.3201 42.3264 13.7902 43.0619 13.4274 43.882C13.0646 44.7022 12.8768 45.589 12.876 46.4858L12.876 83.6867C12.876 84.5322 13.0425 85.3693 13.3661 86.1504C13.6896 86.9315 14.1639 87.6412 14.7618 88.239C15.3596 88.8368 16.0694 89.311 16.8505 89.6344C17.6316 89.9579 18.4688 90.1243 19.3143 90.1242L38.624 90.1213C39.4776 90.1212 40.2962 89.782 40.8998 89.1784C41.5033 88.5748 41.8424 87.7561 41.8424 86.9025L41.8424 61.1525L61.1549 61.1525L61.1549 86.9025C61.1549 87.7561 61.4939 88.5748 62.0975 89.1784C62.701 89.782 63.5196 90.1212 64.3732 90.1213L83.6877 90.1242L83.6885 90.1242C84.5339 90.1242 85.371 89.9577 86.152 89.6342C86.933 89.3107 87.6427 88.8365 88.2405 88.2387C88.8383 87.6409 89.3124 86.9313 89.636 86.1502C89.9595 85.3692 90.126 84.5321 90.126 83.6867L90.126 46.486C90.1251 45.5892 89.9373 44.7025 89.5746 43.8823C89.2118 43.0622 88.6821 42.3267 88.0192 41.7227Z" fill="white"/>
</svg>
