<svg width="318" height="70" viewBox="0 0 318 70" fill="none" xmlns="http://www.w3.org/2000/svg">
<rect width="318" height="70" rx="4" fill="#00966C"/>
<path d="M49.4512 46V26.0117H53.6895V46H49.4512ZM76.4531 46H71.0664L62.3711 30.8789H62.248C62.4212 33.5495 62.5078 35.4544 62.5078 36.5938V46H58.7207V26.0117H64.0664L72.748 40.9824H72.8438C72.707 38.3848 72.6387 36.5482 72.6387 35.4727V26.0117H76.4531V46ZM89.209 46H84.9707V29.5391H79.543V26.0117H94.6367V29.5391H89.209V46ZM109.225 46H97.7129V26.0117H109.225V29.4844H101.951V33.873H108.719V37.3457H101.951V42.5H109.225V46ZM117.646 34.8848H119.014C120.354 34.8848 121.342 34.6615 121.98 34.2148C122.618 33.7682 122.938 33.0664 122.938 32.1094C122.938 31.1615 122.609 30.487 121.953 30.0859C121.306 29.6849 120.299 29.4844 118.932 29.4844H117.646V34.8848ZM117.646 38.3301V46H113.408V26.0117H119.232C121.949 26.0117 123.958 26.5085 125.262 27.502C126.565 28.4863 127.217 29.9857 127.217 32C127.217 33.1758 126.893 34.224 126.246 35.1445C125.599 36.056 124.683 36.7715 123.498 37.291C126.506 41.7845 128.465 44.6875 129.377 46H124.674L119.902 38.3301H117.646ZM149.625 46H144.238L135.543 30.8789H135.42C135.593 33.5495 135.68 35.4544 135.68 36.5938V46H131.893V26.0117H137.238L145.92 40.9824H146.016C145.879 38.3848 145.811 36.5482 145.811 35.4727V26.0117H149.625V46ZM166.182 46H154.67V26.0117H166.182V29.4844H158.908V33.873H165.676V37.3457H158.908V42.5H166.182V46ZM178.076 46H173.838V29.5391H168.41V26.0117H183.504V29.5391H178.076V46Z" fill="white"/>
<path d="M246.125 24.1252L250.375 28.3752C260.936 17.814 278.064 17.814 288.625 28.3752L292.875 24.1252C279.976 11.2265 259.045 11.2265 246.125 24.1252ZM263.125 41.1252L269.5 47.5002L275.875 41.1252C272.369 37.5977 266.652 37.5977 263.125 41.1252ZM254.625 32.6252L258.875 36.8752C264.74 31.0102 274.26 31.0102 280.125 36.8752L284.375 32.6252C276.173 24.4227 262.849 24.4227 254.625 32.6252Z" fill="white"/>
</svg>
