<svg width="318" height="70" viewBox="0 0 318 70" fill="none" xmlns="http://www.w3.org/2000/svg">
<rect width="318" height="70" rx="4" fill="#CB333B"/>
<path d="M41.0156 46H35.6289L26.9336 30.8789H26.8105C26.9837 33.5495 27.0703 35.4544 27.0703 36.5938V46H23.2832V26.0117H28.6289L37.3105 40.9824H37.4062C37.2695 38.3848 37.2012 36.5482 37.2012 35.4727V26.0117H41.0156V46ZM64.2031 35.9785C64.2031 39.2871 63.3828 41.8301 61.7422 43.6074C60.1016 45.3848 57.75 46.2734 54.6875 46.2734C51.625 46.2734 49.2734 45.3848 47.6328 43.6074C45.9922 41.8301 45.1719 39.278 45.1719 35.9512C45.1719 32.6243 45.9922 30.0859 47.6328 28.3359C49.2826 26.5768 51.6432 25.6973 54.7148 25.6973C57.7865 25.6973 60.1335 26.5814 61.7559 28.3496C63.3874 30.1178 64.2031 32.6608 64.2031 35.9785ZM49.6152 35.9785C49.6152 38.2116 50.0391 39.8932 50.8867 41.0234C51.7344 42.1536 53.0013 42.7188 54.6875 42.7188C58.069 42.7188 59.7598 40.472 59.7598 35.9785C59.7598 31.4759 58.0781 29.2246 54.7148 29.2246C53.0286 29.2246 51.7572 29.7943 50.9004 30.9336C50.0436 32.0638 49.6152 33.7454 49.6152 35.9785ZM75.6191 46V26.0117H79.8574V46H75.6191ZM102.621 46H97.2344L88.5391 30.8789H88.416C88.5892 33.5495 88.6758 35.4544 88.6758 36.5938V46H84.8887V26.0117H90.2344L98.916 40.9824H99.0117C98.875 38.3848 98.8066 36.5482 98.8066 35.4727V26.0117H102.621V46ZM115.377 46H111.139V29.5391H105.711V26.0117H120.805V29.5391H115.377V46ZM135.393 46H123.881V26.0117H135.393V29.4844H128.119V33.873H134.887V37.3457H128.119V42.5H135.393V46ZM143.814 34.8848H145.182C146.521 34.8848 147.51 34.6615 148.148 34.2148C148.786 33.7682 149.105 33.0664 149.105 32.1094C149.105 31.1615 148.777 30.487 148.121 30.0859C147.474 29.6849 146.467 29.4844 145.1 29.4844H143.814V34.8848ZM143.814 38.3301V46H139.576V26.0117H145.4C148.117 26.0117 150.126 26.5085 151.43 27.502C152.733 28.4863 153.385 29.9857 153.385 32C153.385 33.1758 153.061 34.224 152.414 35.1445C151.767 36.056 150.851 36.7715 149.666 37.291C152.674 41.7845 154.633 44.6875 155.545 46H150.842L146.07 38.3301H143.814ZM175.793 46H170.406L161.711 30.8789H161.588C161.761 33.5495 161.848 35.4544 161.848 36.5938V46H158.061V26.0117H163.406L172.088 40.9824H172.184C172.047 38.3848 171.979 36.5482 171.979 35.4727V26.0117H175.793V46ZM192.35 46H180.838V26.0117H192.35V29.4844H185.076V33.873H191.844V37.3457H185.076V42.5H192.35V46ZM204.244 46H200.006V29.5391H194.578V26.0117H209.672V29.5391H204.244V46Z" fill="white"/>
<path d="M295.854 29.125C287.694 20.965 276.325 17.99 265.785 20.1575L271.14 25.5125C278.514 25.1512 285.994 27.7437 291.604 33.375L295.854 29.125V29.125ZM287.354 37.625C284.613 34.8837 281.319 33.0987 277.813 32.185L285.314 39.6862L287.354 37.625V37.625ZM251.25 16.4812L257.774 22.9625C254.65 24.4925 251.718 26.5325 249.125 29.125L253.354 33.375C255.989 30.74 259.028 28.785 262.279 27.4887L267.039 32.2487C263.596 33.1412 260.324 34.9262 257.625 37.625V37.6462L261.854 41.875C264.744 38.985 268.526 37.54 272.309 37.4975L287.333 52.5L290.031 49.8225L253.991 13.8037L251.25 16.4812ZM266.125 46.125L272.5 52.5L278.875 46.125C275.369 42.5975 269.653 42.5975 266.125 46.125Z" fill="white"/>
</svg>
