<svg width="58" height="51" viewBox="0 0 58 51" fill="none" xmlns="http://www.w3.org/2000/svg">
<path d="M53.5943 21.4229C39.4761 7.52317 17.5182 7.52826 3.40554 21.4229C2.87482 21.9454 2.86446 22.83 3.37765 23.3721L6.10615 26.2534C6.59543 26.7709 7.38275 26.7819 7.89115 26.2857C19.5192 14.9467 37.4791 14.9442 49.1095 26.2857C49.6179 26.7819 50.4053 26.77 50.8945 26.2534L53.623 23.3721C54.1354 22.83 54.1251 21.9454 53.5943 21.4229ZM28.4999 38.1429C25.683 38.1429 23.3999 40.573 23.3999 43.5714C23.3999 46.5699 25.683 49 28.4999 49C31.3169 49 33.6 46.5699 33.6 43.5714C33.6 40.573 31.3169 38.1429 28.4999 38.1429ZM44.6502 31.0526C35.4654 22.4068 21.5241 22.4161 12.3497 31.0526C11.7998 31.57 11.7823 32.4683 12.3043 33.0163L15.0487 35.8993C15.5268 36.4015 16.2966 36.4354 16.8058 35.9672C23.4956 29.8117 33.5195 29.8253 40.1933 35.9672C40.7025 36.4354 41.4723 36.4023 41.9504 35.8993L44.6948 33.0163C45.2176 32.4683 45.1993 31.5692 44.6502 31.0526Z" fill="#828384"/>
<line x1="3.49399" y1="47.9484" x2="55.414" y2="3.94842" stroke="#EB5757" stroke-width="8"/>
</svg>
