<svg width="150" height="150" viewBox="0 0 150 150" fill="none" xmlns="http://www.w3.org/2000/svg">
<path d="M75 0C33.5685 0 0 33.5685 0 75C0 116.431 33.5685 150 75 150C116.431 150 150 116.431 150 75C150 33.5685 116.431 0 75 0ZM109.99 82.2581L56.7641 112.802C51.9859 115.464 45.9677 112.046 45.9677 106.452V43.5484C45.9677 37.9839 51.9556 34.5363 56.7641 37.1976L109.99 69.5565C114.95 72.3387 114.95 79.5061 109.99 82.2581Z" fill="#174A5B"/>
<path d="M112.731 68.702L56.5544 37.0005C51.9901 34.426 45 36.9244 45 43.2921V106.68C45 112.392 51.4954 115.835 56.5544 112.971L112.731 81.2851C117.742 78.4668 117.758 71.5202 112.731 68.702Z" fill="white"/>
</svg>
