<svg width="57" height="57" viewBox="0 0 57 57" fill="none" xmlns="http://www.w3.org/2000/svg">
<path d="M22.4711 15.3752V22.4713H15.3749V15.3752H22.4711ZM26.0192 11.8271H11.8269V26.0194H26.0192V11.8271ZM22.4711 34.2983V41.3944H15.3749V34.2983H22.4711ZM26.0192 30.7502H11.8269V44.9425H26.0192V30.7502ZM41.3942 15.3752V22.4713H34.298V15.3752H41.3942ZM44.9422 11.8271H30.7499V26.0194H44.9422V11.8271ZM30.7499 30.7502H34.298V34.2983H30.7499V30.7502ZM34.298 34.2983H37.8461V37.8463H34.298V34.2983ZM37.8461 30.7502H41.3942V34.2983H37.8461V30.7502ZM30.7499 37.8463H34.298V41.3944H30.7499V37.8463ZM34.298 41.3944H37.8461V44.9425H34.298V41.3944ZM37.8461 37.8463H41.3942V41.3944H37.8461V37.8463ZM41.3942 34.2983H44.9422V37.8463H41.3942V34.2983ZM41.3942 41.3944H44.9422V44.9425H41.3942V41.3944ZM52.0384 16.5579H47.3076V9.46173H40.2115V4.73096H52.0384V16.5579ZM52.0384 52.0387V40.2117H47.3076V47.3079H40.2115V52.0387H52.0384ZM4.73071 52.0387H16.5576V47.3079H9.46148V40.2117H4.73071V52.0387ZM4.73071 4.73096V16.5579H9.46148V9.46173H16.5576V4.73096H4.73071Z" fill="white"/>
</svg>
