<svg width="56" height="57" viewBox="0 0 56 57" fill="none" xmlns="http://www.w3.org/2000/svg">
<path d="M54.2426 12.4574L43.7574 1.7882C42.6322 0.643243 41.106 6.67013e-06 39.5148 -1.72724e-06L6 -2.62268e-07C2.68625 -1.1742e-07 1.1948e-07 2.73338 2.6687e-07 6.10526L2.22391e-06 50.8772C2.3713e-06 54.2491 2.68625 56.9825 6 56.9825L50 56.9825C53.3138 56.9825 56 54.2491 56 50.8772L56 16.7745C56 15.1553 55.3678 13.6024 54.2426 12.4574ZM28 48.8421C23.5818 48.8421 20 45.1975 20 40.7018C20 36.206 23.5818 32.5614 28 32.5614C32.4183 32.5614 36 36.206 36 40.7018C36 45.1975 32.4183 48.8421 28 48.8421ZM40 10.1093L40 22.8947C40 23.7376 39.3284 24.4211 38.5 24.4211L9.5 24.4211C8.67163 24.4211 8 23.7376 8 22.8947L8 9.66667C8 8.82376 8.67163 8.14035 9.5 8.14035L38.065 8.14035C38.4629 8.14035 38.8444 8.30112 39.1256 8.58743L39.5606 9.03006C39.6999 9.17177 39.8104 9.34002 39.8858 9.5252C39.9612 9.71038 40 9.90886 40 10.1093Z" fill="#174A5B"/>
</svg>
