<svg width="80" height="80" viewBox="0 0 80 80" fill="none" xmlns="http://www.w3.org/2000/svg">
<path d="M51.6559 46.6569H49.0231L48.09 45.7571C51.3559 41.9579 53.3222 37.0256 53.3222 31.6601C53.3222 19.696 43.6242 9.99805 31.6601 9.99805C19.696 9.99805 9.99805 19.696 9.99805 31.6601C9.99805 43.6242 19.696 53.3222 31.6601 53.3222C37.0256 53.3222 41.9579 51.3559 45.7571 48.09L46.6569 49.0231V51.6559L63.32 68.2857L68.2857 63.32L51.6559 46.6569ZM31.6601 46.6569C23.3619 46.6569 16.6633 39.9583 16.6633 31.6601C16.6633 23.3619 23.3619 16.6633 31.6601 16.6633C39.9583 16.6633 46.6569 23.3619 46.6569 31.6601C46.6569 39.9583 39.9583 46.6569 31.6601 46.6569Z" fill="#174A5B"/>
</svg>
