<svg width="56" height="56" viewBox="0 0 56 56" fill="none" xmlns="http://www.w3.org/2000/svg">
<path d="M28 44.3335C28 35.3035 35.3034 28.0002 44.3334 28.0002C46.8534 28.0002 49.21 28.5835 51.3334 29.5868V14.0002C51.3334 11.4335 49.2334 9.3335 46.6667 9.3335H9.33335C6.76669 9.3335 4.66669 11.4335 4.66669 14.0002V42.0002C4.66669 44.5668 6.76669 46.6668 9.33335 46.6668H28.1867C28.07 45.8968 28 45.1268 28 44.3335ZM9.33335 14.0002L28 25.6668L46.6667 14.0002V18.6668L28 30.3335L9.33335 18.6668V14.0002ZM40.46 51.3335L32.2 43.0735L35.49 39.7835L40.4367 44.7302L50.33 34.8368L53.6667 38.1268L40.46 51.3335Z" fill="white"/>
</svg>
