<svg width="38" height="46" viewBox="0 0 38 46" fill="none" xmlns="http://www.w3.org/2000/svg">
<path d="M2.6769 41.2744C2.6769 42.4068 3.09995 43.4929 3.85297 44.2936C4.606 45.0943 5.62732 45.5442 6.69226 45.5442L30.7844 45.5442C31.8493 45.5442 32.8706 45.0943 33.6237 44.2936C34.3767 43.4929 34.7997 42.4068 34.7997 41.2744L34.7997 11.3861L2.6769 11.3861L2.6769 41.2744ZM25.4306 18.5023C25.4306 18.1249 25.5716 17.7629 25.8226 17.4959C26.0736 17.229 26.414 17.0791 26.769 17.0791C27.124 17.0791 27.4644 17.229 27.7155 17.4959C27.9665 17.7629 28.1075 18.1249 28.1075 18.5023L28.1075 38.4279C28.1075 38.8054 27.9665 39.1674 27.7155 39.4343C27.4644 39.7012 27.124 39.8512 26.769 39.8512C26.414 39.8512 26.0736 39.7012 25.8226 39.4343C25.5716 39.1674 25.4306 38.8054 25.4306 38.4279L25.4306 18.5023ZM17.3999 18.5023C17.3999 18.1249 17.5409 17.7629 17.7919 17.4959C18.0429 17.229 18.3833 17.0791 18.7383 17.0791C19.0933 17.0791 19.4337 17.229 19.6847 17.4959C19.9358 17.7629 20.0768 18.1249 20.0768 18.5023L20.0768 38.4279C20.0768 38.8054 19.9358 39.1674 19.6847 39.4343C19.4337 39.7012 19.0933 39.8512 18.7383 39.8512C18.3833 39.8512 18.0429 39.7012 17.7919 39.4343C17.5409 39.1674 17.3999 38.8054 17.3999 38.4279L17.3999 18.5023ZM9.36916 18.5023C9.36916 18.1249 9.51017 17.7629 9.76118 17.4959C10.0122 17.229 10.3526 17.0791 10.7076 17.0791C11.0626 17.0791 11.403 17.229 11.654 17.4959C11.905 17.7629 12.0461 18.1249 12.0461 18.5023L12.0461 38.4279C12.0461 38.8054 11.905 39.1674 11.654 39.4343C11.403 39.7012 11.0626 39.8512 10.7076 39.8512C10.3526 39.8512 10.0122 39.7012 9.76118 39.4343C9.51017 39.1674 9.36916 38.8054 9.36916 38.4279L9.36916 18.5023ZM36.1382 2.84653L26.0998 2.84653L25.3135 1.1831C25.1469 0.827473 24.8903 0.528331 24.5726 0.319322C24.2548 0.110313 23.8885 -0.000269303 23.5149 1.56398e-05L13.9534 1.5622e-05C13.5806 -0.0015082 13.2149 0.108662 12.8983 0.317903C12.5817 0.527144 12.3269 0.826993 12.1632 1.1831L11.3768 2.84653L1.33845 2.84653C0.983472 2.84653 0.643032 2.99648 0.392023 3.26339C0.141015 3.5303 1.49437e-08 3.89231 1.63929e-08 4.26978L2.73215e-08 7.11629C2.87707e-08 7.49376 0.141015 7.85577 0.392023 8.12269C0.643032 8.3896 0.983472 8.53955 1.33845 8.53955L36.1382 8.53955C36.4932 8.53955 36.8336 8.3896 37.0846 8.12269C37.3356 7.85577 37.4766 7.49376 37.4766 7.11629L37.4766 4.26978C37.4766 3.89231 37.3356 3.5303 37.0846 3.26339C36.8336 2.99648 36.4932 2.84653 36.1382 2.84653Z" fill="white"/>
</svg>
