<svg width="86" height="86" viewBox="0 0 86 86" fill="none" xmlns="http://www.w3.org/2000/svg">
<circle cx="42.9999" cy="43" r="43" fill="#CB333B"/>
<path d="M21.5714 65.8438C21.5714 67.2113 22.1358 68.5228 23.1405 69.4898C24.1452 70.4568 25.5078 71 26.9286 71L59.0714 71C60.4922 71 61.8548 70.4568 62.8595 69.4898C63.8642 68.5228 64.4286 67.2113 64.4286 65.8438L64.4286 29.75L21.5714 29.75L21.5714 65.8438ZM51.9286 38.3438C51.9286 37.8879 52.1167 37.4507 52.4516 37.1284C52.7865 36.8061 53.2407 36.625 53.7143 36.625C54.1879 36.625 54.6421 36.8061 54.977 37.1284C55.3119 37.4507 55.5 37.8879 55.5 38.3438L55.5 62.4063C55.5 62.8621 55.3119 63.2993 54.977 63.6216C54.6421 63.9439 54.1879 64.125 53.7143 64.125C53.2407 64.125 52.7865 63.9439 52.4516 63.6216C52.1167 63.2993 51.9286 62.8621 51.9286 62.4063L51.9286 38.3438ZM41.2143 38.3438C41.2143 37.8879 41.4024 37.4507 41.7373 37.1284C42.0722 36.8061 42.5264 36.625 43 36.625C43.4736 36.625 43.9278 36.8061 44.2627 37.1284C44.5976 37.4507 44.7857 37.8879 44.7857 38.3438L44.7857 62.4063C44.7857 62.8621 44.5976 63.2993 44.2627 63.6216C43.9278 63.9439 43.4736 64.125 43 64.125C42.5264 64.125 42.0722 63.9439 41.7373 63.6216C41.4024 63.2993 41.2143 62.8621 41.2143 62.4063L41.2143 38.3438ZM30.5 38.3438C30.5 37.8879 30.6881 37.4507 31.023 37.1284C31.3579 36.8061 31.8121 36.625 32.2857 36.625C32.7593 36.625 33.2135 36.8061 33.5484 37.1284C33.8833 37.4507 34.0714 37.8879 34.0714 38.3438L34.0714 62.4063C34.0714 62.8621 33.8833 63.2993 33.5484 63.6216C33.2135 63.9439 32.7593 64.125 32.2857 64.125C31.8121 64.125 31.3579 63.9439 31.023 63.6216C30.6881 63.2993 30.5 62.8621 30.5 62.4063L30.5 38.3438ZM66.2143 19.4375L52.8214 19.4375L51.7723 17.4287C51.5501 16.9993 51.2078 16.638 50.7838 16.3856C50.3599 16.1332 49.8712 15.9997 49.3728 16L36.6161 16C36.1187 15.9982 35.6309 16.1312 35.2085 16.3839C34.7861 16.6366 34.4462 16.9987 34.2277 17.4287L33.1786 19.4375L19.7857 19.4375C19.3121 19.4375 18.8579 19.6186 18.523 19.9409C18.1881 20.2633 18 20.7004 18 21.1563L18 24.5938C18 25.0496 18.1881 25.4868 18.523 25.8091C18.8579 26.1314 19.3121 26.3125 19.7857 26.3125L66.2143 26.3125C66.6879 26.3125 67.1421 26.1314 67.477 25.8091C67.8119 25.4868 68 25.0496 68 24.5938L68 21.1563C68 20.7004 67.8119 20.2633 67.477 19.9409C67.1421 19.6186 66.6879 19.4375 66.2143 19.4375Z" fill="white"/>
</svg>
