<svg width="100" height="100" viewBox="0 0 100 100" fill="none" xmlns="http://www.w3.org/2000/svg">
<path d="M68.1246 44.1813C67.9753 43.9165 67.7565 43.6978 67.4917 43.5484L40.825 28.5484C40.0253 28.0928 39.0075 28.3717 38.5519 29.1715C38.4082 29.424 38.3328 29.7096 38.3334 30.0001V60.0001C38.3353 60.5936 38.6525 61.1415 39.1667 61.4384C39.678 61.7372 40.3092 61.7422 40.825 61.4517L67.4917 46.4517C68.2934 45.9994 68.5767 44.983 68.1246 44.1813ZM41.6667 57.1501V32.8501L63.2667 45.0001L41.6667 57.1501Z" fill="#174A5B"/>
<path d="M33.3333 78.3333V75H30V78.3333H6.66663V81.6667H30V85H33.3333V81.6667H93.3333V78.3333H33.3333Z" fill="#174A5B"/>
<path d="M50 18.3335C35.2725 18.3335 23.3334 30.2727 23.3334 45.0002C23.3509 59.7206 35.2796 71.6493 50 71.6668C64.7275 71.6668 76.6667 59.7277 76.6667 45.0002C76.6667 30.2727 64.7275 18.3335 50 18.3335ZM50 68.3335C37.1134 68.3335 26.6667 57.8868 26.6667 45.0002C26.6805 32.1193 37.1192 21.6806 50 21.6668C62.8867 21.6668 73.3334 32.1135 73.3334 45.0002C73.3334 57.8868 62.8867 68.3335 50 68.3335Z" fill="#174A5B"/>
<path d="M95 8.3335H5C2.23854 8.3335 0 10.572 0 13.3335V86.6668C0 89.4283 2.23854 91.6668 5 91.6668H95C97.7615 91.6668 100 89.4283 100 86.6668V13.3335C100 10.572 97.7615 8.3335 95 8.3335ZM96.6667 86.6668C96.6667 87.5872 95.9204 88.3335 95 88.3335H5C4.07958 88.3335 3.33333 87.5872 3.33333 86.6668V13.3335C3.33333 12.4131 4.07958 11.6668 5 11.6668H95C95.9204 11.6668 96.6667 12.4131 96.6667 13.3335V86.6668Z" fill="#174A5B"/>
<path d="M9.99996 15H6.66663V18.3333H9.99996V15Z" fill="#174A5B"/>
<path d="M16.6667 15H13.3334V18.3333H16.6667V15Z" fill="#174A5B"/>
<path d="M23.3333 15H20V18.3333H23.3333V15Z" fill="#174A5B"/>
</svg>
