<svg width="50" height="37" viewBox="0 0 50 37" fill="none" xmlns="http://www.w3.org/2000/svg">
<path d="M48.6692 10.0363C35.0882 -3.34788 13.9658 -3.34298 0.390111 10.0363C-0.120414 10.5394 -0.130379 11.3913 0.363282 11.9132L2.98796 14.6877C3.45862 15.1859 4.21598 15.1966 4.70504 14.7188C15.8906 3.80037 33.1672 3.79791 44.355 14.7188C44.8441 15.1966 45.6014 15.1851 46.0721 14.6877L48.6968 11.9132C49.1897 11.3913 49.1797 10.5394 48.6692 10.0363ZM24.5296 26.1362C21.8199 26.1362 19.6237 28.4762 19.6237 31.3634C19.6237 34.2507 21.8199 36.5907 24.5296 36.5907C27.2394 36.5907 29.4356 34.2507 29.4356 31.3634C29.4356 28.4762 27.2394 26.1362 24.5296 26.1362ZM40.0654 19.3089C31.2301 10.9837 17.8192 10.9927 8.99391 19.3089C8.46499 19.8072 8.44812 20.6721 8.95021 21.1997L11.5902 23.9759C12.0502 24.4594 12.7906 24.4921 13.2805 24.0412C19.7157 18.114 29.3582 18.1271 35.7781 24.0412C36.2679 24.4921 37.0084 24.4602 37.4683 23.9759L40.1083 21.1997C40.6112 20.6721 40.5935 19.8063 40.0654 19.3089Z" fill="#00966C"/>
</svg>
